  0
SECTION
  2
HEADER
  9
$ACADVER
  1
AC1009
  9
$INSBASE
 10
0.0
 20
0.0
 30
0.0
  9
$EXTMIN
 10
3.7169105179332291
 20
6.0416003846223409
 30
0.0
  9
$EXTMAX
 10
466.63281612014629
 20
355.17938182808228
 30
0.0
  9
$LIMMIN
 10
0.0
 20
0.0
  9
$LIMMAX
 10
420.0
 20
297.0
  9
$ORTHOMODE
 70
     0
  9
$REGENMODE
 70
     1
  9
$FILLMODE
 70
     1
  9
$QTEXTMODE
 70
     0
  9
$MIRRTEXT
 70
     0
  9
$DRAGMODE
 70
     2
  9
$LTSCALE
 40
1.0
  9
$OSMODE
 70
   423
  9
$ATTMODE
 70
     1
  9
$TEXTSIZE
 40
2.5
  9
$TRACEWID
 40
1.0
  9
$TEXTSTYLE
  7
STANDARD
  9
$CLAYER
  8
0
  9
$CELTYPE
  6
BYLAYER
  9
$CECOLOR
 62
   256
  9
$DIMSCALE
 40
1.0
  9
$DIMASZ
 40
2.5
  9
$DIMEXO
 40
0.625
  9
$DIMDLI
 40
3.75
  9
$DIMRND
 40
0.0
  9
$DIMDLE
 40
0.0
  9
$DIMEXE
 40
1.25
  9
$DIMTP
 40
0.0
  9
$DIMTM
 40
0.0
  9
$DIMTXT
 40
2.5
  9
$DIMCEN
 40
2.5
  9
$DIMTSZ
 40
0.0
  9
$DIMTOL
 70
     0
  9
$DIMLIM
 70
     0
  9
$DIMTIH
 70
     0
  9
$DIMTOH
 70
     0
  9
$DIMSE1
 70
     0
  9
$DIMSE2
 70
     0
  9
$DIMTAD
 70
     1
  9
$DIMZIN
 70
     8
  9
$DIMBLK
  1

  9
$DIMASO
 70
     1
  9
$DIMSHO
 70
     1
  9
$DIMPOST
  1

  9
$DIMAPOST
  1

  9
$DIMALT
 70
     0
  9
$DIMALTD
 70
     3
  9
$DIMALTF
 40
0.03937007874016
  9
$DIMLFAC
 40
1.0
  9
$DIMTOFL
 70
     1
  9
$DIMTVP
 40
0.0
  9
$DIMTIX
 70
     0
  9
$DIMSOXD
 70
     0
  9
$DIMSAH
 70
     0
  9
$DIMBLK1
  1

  9
$DIMBLK2
  1

  9
$DIMSTYLE
  2
ISO-25
  9
$DIMCLRD
 70
     0
  9
$DIMCLRE
 70
     0
  9
$DIMCLRT
 70
     0
  9
$DIMTFAC
 40
1.0
  9
$DIMGAP
 40
0.625
  9
$LUNITS
 70
     2
  9
$LUPREC
 70
     4
  9
$SKETCHINC
 40
1.0
  9
$FILLETRAD
 40
0.0
  9
$AUNITS
 70
     0
  9
$AUPREC
 70
     0
  9
$MENU
  1
.
  9
$ELEVATION
 40
0.0
  9
$PELEVATION
 40
0.0
  9
$THICKNESS
 40
0.0
  9
$LIMCHECK
 70
     0
  9
$BLIPMODE
 70
     0
  9
$CHAMFERA
 40
0.0
  9
$CHAMFERB
 40
0.0
  9
$SKPOLY
 70
     0
  9
$TDCREATE
 40
2458367.6578507409
  9
$TDUPDATE
 40
2458391.5252360879
  9
$TDINDWG
 40
0.9908680671
  9
$TDUSRTIMER
 40
0.990868044
  9
$USRTIMER
 70
     1
  9
$ANGBASE
 50
0.0
  9
$ANGDIR
 70
     0
  9
$PDMODE
 70
     0
  9
$PDSIZE
 40
0.0
  9
$PLINEWID
 40
0.0
  9
$COORDS
 70
     1
  9
$SPLFRAME
 70
     0
  9
$SPLINETYPE
 70
     6
  9
$SPLINESEGS
 70
     8
  9
$ATTDIA
 70
     1
  9
$ATTREQ
 70
     1
  9
$HANDLING
 70
     1
  9
$HANDSEED
  5
67A
  9
$SURFTAB1
 70
     6
  9
$SURFTAB2
 70
     6
  9
$SURFTYPE
 70
     6
  9
$SURFU
 70
     6
  9
$SURFV
 70
     6
  9
$UCSNAME
  2

  9
$UCSORG
 10
0.0
 20
0.0
 30
0.0
  9
$UCSXDIR
 10
1.0
 20
0.0
 30
0.0
  9
$UCSYDIR
 10
0.0
 20
1.0
 30
0.0
  9
$PUCSNAME
  2

  9
$PUCSORG
 10
0.0
 20
0.0
 30
0.0
  9
$PUCSXDIR
 10
1.0
 20
0.0
 30
0.0
  9
$PUCSYDIR
 10
0.0
 20
1.0
 30
0.0
  9
$USERI1
 70
     0
  9
$USERI2
 70
     0
  9
$USERI3
 70
     0
  9
$USERI4
 70
     0
  9
$USERI5
 70
     0
  9
$USERR1
 40
0.0
  9
$USERR2
 40
0.0
  9
$USERR3
 40
0.0
  9
$USERR4
 40
0.0
  9
$USERR5
 40
0.0
  9
$WORLDVIEW
 70
     1
  9
$SHADEDGE
 70
     3
  9
$SHADEDIF
 70
    70
  9
$TILEMODE
 70
     1
  9
$MAXACTVP
 70
    64
  9
$PLIMCHECK
 70
     0
  9
$PEXTMIN
 10
0.0
 20
0.0
 30
0.0
  9
$PEXTMAX
 10
0.0
 20
0.0
 30
0.0
  9
$PLIMMIN
 10
0.0
 20
0.0
  9
$PLIMMAX
 10
12.0
 20
9.0
  9
$UNITMODE
 70
     0
  9
$VISRETAIN
 70
     1
  9
$PLINEGEN
 70
     0
  9
$PSLTSCALE
 70
     1
  0
ENDSEC
  0
SECTION
  2
TABLES
  0
TABLE
  2
VPORT
 70
     1
  0
VPORT
  2
*ACTIVE
 70
     0
 10
0.0
 20
0.0
 11
1.0
 21
1.0
 12
153.1859389404564
 22
64.657244777516439
 13
0.0
 23
0.0
 14
10.0
 24
10.0
 15
10.0
 25
10.0
 16
0.0
 26
0.0
 36
1.0
 17
0.0
 27
0.0
 37
0.0
 40
257.75823990494018
 41
2.004932182490752
 42
50.0
 43
0.0
 44
0.0
 50
0.0
 51
0.0
 71
     0
 72
  1000
 73
     1
 74
     3
 75
     0
 76
     1
 77
     0
 78
     0
  0
ENDTAB
  0
TABLE
  2
LTYPE
 70
     1
  0
LTYPE
  2
CONTINUOUS
 70
     0
  3
Solid line
 72
    65
 73
     0
 40
0.0
  0
ENDTAB
  0
TABLE
  2
LAYER
 70
     1
  0
LAYER
  2
0
 70
     0
 62
     7
  6
CONTINUOUS
  0
ENDTAB
  0
TABLE
  2
STYLE
 70
     2
  0
STYLE
  2
STANDARD
 70
     0
 40
0.0
 41
1.0
 50
0.0
 71
     0
 42
2.5
  3
txt
  4

  0
STYLE
  2
¿ÕÕŒ“¿“»¬Õ€…
 70
     0
 40
0.0
 41
1.0
 50
0.0
 71
     0
 42
2.5
  3
txt
  4

  0
ENDTAB
  0
TABLE
  2
VIEW
 70
     0
  0
ENDTAB
  0
TABLE
  2
UCS
 70
     0
  0
ENDTAB
  0
TABLE
  2
APPID
 70
     9
  0
APPID
  2
ACAD
 70
     0
  0
APPID
  2
ACAD_PSEXT
 70
     0
  0
APPID
  2
ACADANNOPO
 70
     0
  0
APPID
  2
ACADANNOTATIVE
 70
     0
  0
APPID
  2
ACAD_DSTYLE_DIMJAG
 70
     0
  0
APPID
  2
ACAD_DSTYLE_DIMTALN
 70
     0
  0
APPID
  2
ACAD_MLEADERVER
 70
     0
  0
APPID
  2
ACAD_NAV_VCDISPLAY
 70
     0
  0
APPID
  2
ACAD_EXEMPT_FROM_CAD_STANDARDS
 70
     0
  0
ENDTAB
  0
TABLE
  2
DIMSTYLE
 70
     3
  0
DIMSTYLE
  2
STANDARD
 70
     0
  3

  4

  5

  6

  7

 40
1.0
 41
0.18
 42
0.0625
 43
0.38
 44
0.18
 45
0.0
 46
0.0
 47
0.0
 48
0.0
140
0.18
141
0.09
142
0.0
143
25.399999999999999
144
1.0
145
0.0
146
1.0
147
0.09
 71
     0
 72
     0
 73
     1
 74
     1
 75
     0
 76
     0
 77
     0
 78
     0
170
     0
171
     2
172
     0
173
     0
174
     0
175
     0
176
     0
177
     0
178
     0
  0
DIMSTYLE
  2
¿ÕÕŒ“¿“»¬Õ€…
 70
     0
  3

  4

  5

  6

  7

 40
0.0
 41
2.5
 42
0.625
 43
3.75
 44
1.25
 45
0.0
 46
0.0
 47
0.0
 48
0.0
140
2.5
141
2.5
142
0.0
143
0.03937007874016
144
1.0
145
0.0
146
1.0
147
0.625
 71
     0
 72
     0
 73
     0
 74
     0
 75
     0
 76
     0
 77
     1
 78
     8
170
     0
171
     3
172
     1
173
     0
174
     0
175
     0
176
     0
177
     0
178
     0
  0
DIMSTYLE
  2
ISO-25
 70
     0
  3

  4

  5

  6

  7

 40
1.0
 41
2.5
 42
0.625
 43
3.75
 44
1.25
 45
0.0
 46
0.0
 47
0.0
 48
0.0
140
2.5
141
2.5
142
0.0
143
0.03937007874016
144
1.0
145
0.0
146
1.0
147
0.625
 71
     0
 72
     0
 73
     0
 74
     0
 75
     0
 76
     0
 77
     1
 78
     8
170
     0
171
     3
172
     1
173
     0
174
     0
175
     0
176
     0
177
     0
178
     0
  0
ENDTAB
  0
ENDSEC
  0
SECTION
  2
BLOCKS
  0
BLOCK
  8
0
  2
$MODEL_SPACE
 70
     0
 10
0.0
 20
0.0
 30
0.0
  3
$MODEL_SPACE
  1

  0
ENDBLK
  5
21
  8
0
  0
BLOCK
 67
     1
  8
0
  2
$PAPER_SPACE
 70
     0
 10
0.0
 20
0.0
 30
0.0
  3
$PAPER_SPACE
  1

  0
ENDBLK
  5
D5
 67
     1
  8
0
  0
ENDSEC
  0
SECTION
  2
ENTITIES
  0
LINE
  5
46F
  8
0
 10
4.8884833931870162
 20
58.124861505307621
 30
0.0
 11
28.93011395352983
 21
82.166492065650317
 31
0.0
  0
ARC
  5
470
  8
0
 10
31.758541078275929
 20
79.33806494090399
 30
0.0
 40
4.0
 50
44.999999999999417
 51
135.0000000000006
  0
LINE
  5
471
  8
0
 10
34.586968203022032
 20
82.166492065650203
 30
0.0
 11
79.841802198961091
 21
36.911658069711081
 31
0.0
  0
ARC
  5
472
  8
0
 10
77.013375074214878
 20
34.083230944964932
 30
0.0
 40
4.0
 50
315.00000000000063
 51
44.999999999999417
  0
ARC
  5
474
  8
0
 10
52.971744513872288
 20
10.04160038462234
 30
0.0
 40
4.0
 50
224.9999999999994
 51
315.00000000000063
  0
LINE
  5
475
  8
0
 10
50.143317389126082
 20
7.213173259876128
 30
0.0
 11
4.8884833931870162
 21
52.468007255815188
 31
0.0
  0
ARC
  5
476
  8
0
 10
7.7169105179332291
 20
55.296434380561401
 30
0.0
 40
4.0
 50
135.0000000000006
 51
224.9999999999994
  0
CIRCLE
  5
477
  8
0
 10
10.54533764267944
 20
55.296434380561401
 30
0.0
 40
1.6000000000000001
  0
CIRCLE
  5
478
  8
0
 10
31.758541078276149
 20
76.509637816157493
 30
0.0
 40
1.6000000000000001
  0
CIRCLE
  5
479
  8
0
 10
52.971744513872288
 20
12.8700275093685
 30
0.0
 40
1.6000000000000001
  0
CIRCLE
  5
47A
  8
0
 10
74.184947949468665
 20
34.083230944964932
 30
0.0
 40
1.6000000000000001
  0
CIRCLE
  5
47B
  8
0
 10
42.36514279607411
 20
44.689832662763173
 30
0.0
 40
11.0
  0
CIRCLE
  5
47C
  8
0
 10
20.44483257929107
 20
44.689832662763173
 30
0.0
 40
1.6000000000000001
  0
CIRCLE
  5
47D
  8
0
 10
42.365142796073997
 20
22.76952244598019
 30
0.0
 40
1.6000000000000001
  0
CIRCLE
  5
47E
  8
0
 10
64.285453012857033
 20
44.689832662763102
 30
0.0
 40
1.6000000000000001
  0
CIRCLE
  5
47F
  8
0
 10
42.36514279607411
 20
66.610142879546146
 30
0.0
 40
1.6000000000000001
  0
LINE
  5
4A3
  8
0
  6
CONTINUOUS
 62
     7
 10
80.029876403109597
 20
44.392784353982073
 30
0.0
 11
84.055358568368547
 21
48.41826651924103
 31
0.0
  0
ARC
  5
4A4
  8
0
  6
CONTINUOUS
 62
     7
 10
57.104461996041202
 20
31.59630619474806
 30
0.0
 40
25.000000000000011
 50
31.289911415299098
 51
75.897941246692383
  0
LINE
  5
4A5
  8
0
  6
CONTINUOUS
 62
     7
 10
40.568291525395921
 20
78.470304719669372
 30
0.0
 11
63.19570852336539
 21
55.842887721699782
 31
0.0
  0
LINE
  5
4A6
  8
0
  6
CONTINUOUS
 62
     7
 10
40.568291525395921
 20
85.54137253153479
 30
0.0
 11
40.568291525395921
 21
78.470304719669372
 31
0.0
  0
ARC
  5
4A7
  8
0
  6
CONTINUOUS
 62
     7
 10
56.124640711499978
 20
96.855081030519528
 30
0.0
 40
3.0
 50
44.999999999999417
 51
135.0000000000006
  0
LINE
  5
4A8
  8
0
  6
CONTINUOUS
 62
     7
 10
63.478551235840079
 20
93.743811193298725
 30
0.0
 11
58.245961055059517
 21
98.976401374079174
 31
0.0
  0
ARC
  5
4A9
  8
0
  6
CONTINUOUS
 62
     7
 10
62.347180385941563
 20
92.612440343400095
 30
0.0
 40
1.6000000000000081
 50
315.00000000000063
 51
44.999999999999417
  0
LINE
  5
4AA
  8
0
  6
CONTINUOUS
 62
     7
 10
63.46969981011955
 20
91.472218067781256
 30
0.0
 11
63.478551235839973
 21
91.481069493501678
 31
0.0
  0
ARC
  5
4AB
  8
0
  6
CONTINUOUS
 62
     7
 10
60.367281398619298
 20
88.369799656281003
 30
0.0
 40
3.5000000000000062
 50
237.83958840689959
 51
32.160411593100591
  0
LINE
  5
4AC
  8
0
  6
CONTINUOUS
 62
     7
 10
54.356873758533538
 20
82.359392016195343
 30
0.0
 11
57.26486298711859
 21
85.267381244780424
 31
0.0
  0
ARC
  5
4AD
  8
0
  6
CONTINUOUS
 62
     7
 10
55.771087320906638
 20
80.945178453822265
 30
0.0
 40
2.0
 50
135.0000000000006
 51
224.9999999999994
  0
LINE
  5
4AE
  8
0
  6
CONTINUOUS
 62
     7
 10
68.499009382264603
 20
63.974615705345087
 30
0.0
 11
68.499009382264603
 21
65.388829267718194
 31
0.0
  0
LINE
  5
4AF
  8
0
  6
CONTINUOUS
 62
     7
 10
68.357588026027074
 20
63.833194349107572
 30
0.0
 11
68.499009382264603
 21
63.974615705345087
 31
0.0
  0
LINE
  5
4B0
  8
0
  6
CONTINUOUS
 62
     7
 10
68.357588026027074
 20
63.833194349107572
 30
0.0
 11
75.428655837892506
 21
56.762126537242153
 31
0.0
  0
LINE
  5
4B1
  8
0
  6
CONTINUOUS
 62
     7
 10
75.428655837892506
 20
56.762126537242153
 30
0.0
 11
75.570077194130022
 21
56.903547893479669
 31
0.0
  0
LINE
  5
4B2
  8
0
  6
CONTINUOUS
 62
     7
 10
76.984290756503015
 20
56.903547893479669
 30
0.0
 11
75.570077194130022
 21
56.903547893479669
 31
0.0
  0
LINE
  5
4B3
  8
0
  6
CONTINUOUS
 62
     7
 10
84.055358568368547
 20
49.832480081614143
 30
0.0
 11
76.984290756503015
 21
56.903547893479669
 31
0.0
  0
ARC
  5
4B4
  8
0
  6
CONTINUOUS
 62
     7
 10
57.971969768305136
 20
84.560274463593856
 30
0.0
 40
1.0000000000000051
 50
57.839588406899587
 51
135.0000000000006
  0
ARC
  5
4B5
  8
0
  6
CONTINUOUS
 62
     7
 10
83.348251787181994
 20
49.125373300427583
 30
0.0
 40
1.0
 50
315.00000000000063
 51
44.999999999999417
  0
ARC
  5
4B6
  8
0
  6
CONTINUOUS
 62
     7
 10
79.322769621923044
 20
45.099891135168633
 30
0.0
 40
1.0000000000000011
 50
211.28991141529909
 51
315.00000000000063
  0
LINE
  5
4B7
  8
0
  6
CONTINUOUS
 62
     7
 10
54.003320367940319
 20
98.976401374079174
 30
0.0
 11
40.568291525395921
 21
85.54137253153479
 31
0.0
  0
ARC
  5
4B8
  8
0
  6
CONTINUOUS
 62
     7
 10
64.176806591306104
 20
90.765111286594703
 30
0.0
 40
1.0000000000000071
 50
135.0000000000006
 51
212.1604115931006
  0
CIRCLE
  5
4B9
  8
0
  6
CONTINUOUS
 62
     7
 10
44.810932212515119
 20
82.005838625602024
 30
0.0
 40
1.7000000000000099
  0
CIRCLE
  5
4BA
  8
0
  6
CONTINUOUS
 62
     7
 10
60.367281398619298
 20
88.369799656281003
 30
0.0
 40
1.25
  0
LINE
  5
4BB
  8
0
  6
CONTINUOUS
 62
     7
 10
68.499009382264603
 20
65.388829267718194
 30
0.0
 11
54.356873758533538
 21
79.530964891449145
 31
0.0
  0
CIRCLE
  5
4BC
  8
0
 10
50.821339852600893
 20
89.430459828060776
 30
0.0
 40
1.25
  0
CIRCLE
  5
4BD
  8
0
 10
61.039032840744881
 20
65.070631216185831
 30
0.0
 40
1.25
  0
CIRCLE
  5
4BE
  8
0
 10
78.153530189212674
 20
51.001719514324151
 30
0.0
 40
1.25
  0
LINE
  5
4DB
  8
0
 10
79.841802198961091
 20
31.25480382021874
 30
0.0
 11
55.800171638618501
 21
7.2131732598760996
 31
0.0
  0
ENDSEC
  0
EOF
